<svg version="1.2" xmlns="http://www.w3.org/2000/svg" viewBox="0 0 534 534" width="534" height="534"><style>.s0{fill:#42352b;stroke:#32271e;stroke-linecap:round;stroke-linejoin:round;stroke-width:30}.s1{fill:#d3cab8;stroke:#bfa794;stroke-linecap:round;stroke-linejoin:round;stroke-width:15}.s2{fill:#1d1915;stroke:#2c261f;stroke-linecap:round;stroke-linejoin:round;stroke-width:8}</style><path class="s0" d="m455.9 482.8c-42.4 9.7-343 0-368.2 0c-26.8 0-82-164.8-60.7-229.6c29.4-89.6 111.7-205.9 233.1-208.6c111.1-2.4 226.4 123.3 247.9 211.1c17.2 70-18.4 193.9-52.1 227.1z" /><path class="s1" d="m358.3 142.8c-49.1-40.5-115.3-44.1-165.7-3.7c-69.9-9.8-72.2 25.8-173.6 101.9c30.4-89.6 115.4-206 240.9-208.7c114.7-2.4 233.8 123.3 256.1 211.1c-120.4-92-90.2-106.8-157.7-100.6z" /><path class="s2" d="m387.9 74.4c-1.6 2.6-7.2 1.8-12.6-1.7c-5.4-3.4-8.5-8.3-6.9-10.8c1.6-2.5 7.3-1.7 12.7 1.8c5.4 3.4 8.4 8.2 6.8 10.7z" /><path class="s2" d="m165.8 58.8c1.2 2.7-2.6 7-8.5 9.5c-5.9 2.5-11.6 2.4-12.8-0.3c-1.2-2.8 2.7-7 8.5-9.6c5.9-2.5 11.7-2.4 12.8 0.4z" /><path class="s2" d="m283.5 33.5c-0.8 2.8-6.5 3.6-12.6 1.8c-6.2-1.8-10.4-5.6-9.6-8.5c0.9-2.8 6.5-3.7 12.7-1.8c6.1 1.8 10.4 5.6 9.5 8.5z" /><path class="s2" d="m450 131.5c-2.5 1.5-7.3-1.6-10.6-7.1c-3.4-5.5-4-11.2-1.5-12.7c2.6-1.6 7.3 1.6 10.7 7.1c3.3 5.4 4 11.1 1.4 12.7z" /><path class="s2" d="m77.7 119.7c-1.6-2.5 1.4-7.4 6.8-10.9c5.3-3.5 11-4.4 12.6-1.9c1.7 2.5-1.3 7.4-6.7 10.9c-5.4 3.5-11 4.4-12.7 1.9z" /><path class="s2" d="m497.2 187.3c-1.7 2.6-7.3 1.8-12.7-1.7c-5.4-3.4-8.5-8.3-6.9-10.8c1.6-2.5 7.3-1.7 12.7 1.8c5.4 3.4 8.5 8.2 6.9 10.7z" /><path class="s2" d="m45.6 180.2c1.2 2.8-2.7 7-8.5 9.6c-5.9 2.5-11.7 2.4-12.8-0.4c-1.2-2.7 2.6-7 8.5-9.5c5.9-2.5 11.6-2.4 12.8 0.3z" /><path class="s2" d="m425.9 93.6c-0.9 2.8-6.5 3.7-12.7 1.8c-6.1-1.8-10.4-5.6-9.5-8.5c0.8-2.8 6.5-3.6 12.6-1.8c6.2 1.8 10.4 5.6 9.6 8.5z" /><path class="s2" d="m313.8 50.5c-2.5 1.5-7.3-1.6-10.6-7.1c-3.4-5.5-4-11.2-1.5-12.7c2.6-1.6 7.3 1.6 10.7 7.1c3.3 5.5 3.9 11.1 1.4 12.7z" /><path class="s2" d="m198 43.6c-1.6-2.5 1.4-7.3 6.7-10.9c5.4-3.5 11-4.3 12.7-1.9c1.6 2.5-1.4 7.4-6.7 10.9c-5.4 3.6-11.1 4.4-12.7 1.9z" /><path class="s2" d="m107.2 89c-1.6-2.5 1.4-7.3 6.7-10.9c5.4-3.5 11-4.3 12.7-1.9c1.6 2.5-1.4 7.4-6.8 10.9c-5.3 3.6-11 4.4-12.6 1.9z" /></svg>