<?xml version="1.0" standalone="no"?>
<!DOCTYPE svg PUBLIC "-//W3C//DTD SVG 20010904//EN"
 "http://www.w3.org/TR/2001/REC-SVG-20010904/DTD/svg10.dtd">
<svg version="1.0" xmlns="http://www.w3.org/2000/svg"
 width="659.000000pt" height="659.000000pt" viewBox="0 0 659.000000 659.000000"
 preserveAspectRatio="xMidYMid meet">
<metadata>
Created by potrace 1.14, written by Peter Selinger 2001-2017
</metadata>
<g transform="translate(0.000000,659.000000) scale(0.100000,-0.100000)"
fill="#000000" stroke="none">
<path d="M1405 6584 c-37 -9 -100 -39 -124 -59 -90 -75 -123 -138 -127 -248
-4 -103 20 -169 87 -238 45 -46 138 -99 174 -99 8 0 15 -6 15 -14 0 -8 14 -40
30 -70 48 -87 61 -134 66 -236 4 -99 0 -130 -18 -130 -20 0 -117 -84 -171
-149 -41 -51 -99 -143 -145 -236 -63 -124 -122 -255 -116 -255 2 0 -2 -13 -10
-28 -13 -25 -53 -130 -60 -157 -1 -5 -15 -50 -30 -99 -16 -49 -29 -94 -30
-100 -2 -6 -8 -29 -14 -51 -6 -22 -14 -54 -17 -72 -3 -18 -9 -43 -15 -57 -5
-15 -8 -26 -5 -26 2 0 -1 -15 -6 -32 -5 -18 -12 -53 -15 -78 -3 -25 -8 -47 -9
-50 -2 -3 -6 -26 -9 -50 -4 -25 -9 -63 -13 -85 -7 -50 -10 -66 -17 -135 -3
-30 -8 -75 -11 -100 -3 -25 -7 -78 -10 -119 -3 -40 -8 -78 -12 -84 -3 -6 -1
-7 5 -3 9 5 9 1 3 -17 -10 -25 -7 -652 3 -767 12 -144 17 -196 21 -225 3 -16
7 -48 10 -70 11 -90 14 -113 39 -257 12 -66 59 -265 67 -280 6 -10 8 -18 5
-18 -3 0 3 -24 13 -52 10 -29 19 -55 19 -58 9 -60 120 -332 194 -475 151 -292
385 -584 602 -748 15 -12 42 -33 60 -47 17 -14 39 -29 48 -35 9 -5 47 -31 85
-56 37 -25 84 -54 103 -65 19 -10 37 -21 40 -24 6 -6 202 -99 275 -130 122
-52 338 -117 485 -145 41 -8 86 -18 100 -21 173 -39 733 -32 945 12 11 2 41 8
67 13 162 34 351 98 498 168 101 48 235 125 250 144 3 3 14 11 26 17 41 22
172 132 260 220 256 256 486 608 630 964 25 62 47 120 49 128 8 38 10 45 16
50 5 5 44 159 53 213 14 80 20 176 20 307 0 127 -3 179 -18 315 -5 45 -15 93
-33 160 -8 33 -16 65 -17 70 -21 94 -122 341 -167 406 -10 14 -16 28 -13 31 2
3 -2 11 -11 18 -8 7 -15 16 -15 21 0 5 -28 48 -62 96 -181 258 -393 443 -663
578 -114 57 -291 124 -365 139 -44 9 -134 25 -164 30 -190 33 -475 21 -687
-28 -36 -9 -74 -17 -85 -19 -10 -1 -25 -6 -31 -10 -7 -5 -13 -6 -13 -2 0 3
-16 -1 -35 -9 -19 -8 -35 -12 -35 -8 0 3 -5 1 -12 -6 -7 -7 -20 -12 -29 -12
-10 0 -55 -16 -101 -36 -46 -19 -87 -37 -93 -38 -5 -1 -34 -14 -64 -29 -30
-15 -57 -25 -59 -22 -3 3 -6 94 -8 202 -2 214 -12 476 -18 508 -2 11 -7 45
-11 75 -8 63 -8 61 -34 160 -53 205 -129 370 -211 460 -13 14 -32 35 -43 47
l-20 22 40 68 c21 37 49 88 60 113 32 66 66 144 68 155 2 6 10 34 19 64 9 30
18 73 21 95 3 23 7 48 9 56 1 8 27 40 57 70 123 125 125 318 5 443 -69 73
-130 101 -226 103 -91 3 -157 -19 -219 -73 -83 -70 -119 -152 -115 -262 1 -58
8 -85 33 -136 l32 -65 -27 -87 c-27 -89 -86 -216 -130 -283 -24 -36 -27 -37
-62 -28 -52 13 -97 18 -175 22 -37 2 -70 6 -74 10 -4 4 -8 26 -9 49 -4 136
-95 375 -167 439 -15 13 -17 24 -11 60 8 50 8 48 0 110 -6 50 -41 126 -78 169
-25 28 -118 94 -118 83 0 -3 -6 -1 -14 5 -14 12 -147 23 -181 15z"/>
</g>
</svg>
